# xmcd CD database file
# Copyright (C) 1997 Ti Kan
# 
# Track frame offsets:
#     150
#     19012
#     39325
#     53662
#     73650
#     86850
#     113475
#     126862
#     151050
#     170662
#     192825
#     206737
# 
# Disc length: 2928 seconds
# 
# Revision: 1
# Processed by: cddbd v1.4b41PL1 Copyright (c) Steve Scherf et al.
# Submitted via: DiscPlay 4.0.4
# 
DISCID=9b0b6e0c
DTITLE=Kimberly M'Carver - Inherited Road
DYEAR=1900
DGENRE=
TTITLE0=Inherited Road
TTITLE1=Cassidy Jane
TTITLE2=This Cold Night
TTITLE3=Dancin' Fools
TTITLE4=Blue Norther
TTITLE5=New Orleans Waltz
TTITLE6=Waiting
TTITLE7=Coyote Dance
TTITLE8=Alimentar Mi Alma
TTITLE9=Midnight Angel
TTITLE10=Texas Man
TTITLE11=San Luis
EXTD=
EXTT0=
EXTT1=
EXTT2=
EXTT3=
EXTT4=
EXTT5=
EXTT6=
EXTT7=
EXTT8=
EXTT9=
EXTT10=
EXTT11=
PLAYORDER=
